<svg width="32" height="32" viewBox="0 0 32 32" fill="none" xmlns="http://www.w3.org/2000/svg">
<rect width="32" height="32" rx="16" fill="#009DFF"/>
<path d="M7.79529 19.4465L11.8457 13.218C11.9981 12.9834 12.1989 12.7821 12.4356 12.6267C12.6723 12.4712 12.9397 12.365 13.2208 12.3148C13.502 12.2645 13.7909 12.2713 14.0692 12.3348C14.3475 12.3982 14.6092 12.5169 14.8378 12.6833L18.0609 15.0257C18.2048 15.1301 18.3798 15.1863 18.5596 15.1857C18.7393 15.1851 18.914 15.1277 19.0571 15.0224L23.4074 11.8212C23.9865 11.3935 24.7449 12.0685 24.3588 12.6666L20.305 18.8918C20.1526 19.1263 19.9517 19.3277 19.7151 19.4831C19.4784 19.6386 19.211 19.7448 18.9298 19.795C18.6487 19.8452 18.3598 19.8384 18.0815 19.775C17.8032 19.7116 17.5415 19.5929 17.3129 19.4265L14.0898 17.0841C13.9459 16.9796 13.7708 16.9235 13.5911 16.9241C13.4113 16.9247 13.2367 16.982 13.0936 17.0874L8.74326 20.2886C8.16414 20.7163 7.40577 20.0446 7.79529 19.4465Z" fill="white"/>
</svg>
