<svg width="32" height="33" viewBox="0 0 32 33" fill="none" xmlns="http://www.w3.org/2000/svg">
<rect y="0.5" width="32" height="32" rx="16" fill="#1C61E7"/>
<path d="M22.7163 19.7488V22.4263C22.7164 22.618 22.6438 22.8026 22.5131 22.9429C22.3824 23.0832 22.2033 23.1686 22.0121 23.182C21.6812 23.2048 21.4109 23.2169 21.2019 23.2169C14.5107 23.2169 9.08691 17.7928 9.08691 11.1012C9.08691 10.8922 9.09827 10.6219 9.12174 10.291C9.13516 10.0997 9.22062 9.92068 9.36087 9.78998C9.50112 9.65928 9.68572 9.58664 9.87742 9.58673H12.5548C12.6488 9.58664 12.7394 9.62146 12.809 9.68443C12.8787 9.7474 12.9225 9.83403 12.9319 9.92748C12.9493 10.1016 12.9652 10.2402 12.9804 10.3455C13.1309 11.3957 13.4392 12.4171 13.8951 13.3752C13.967 13.5266 13.92 13.7076 13.7838 13.8045L12.1497 14.9722C13.1488 17.3002 15.004 19.1555 17.3319 20.1546L18.498 18.5236C18.5457 18.4569 18.6152 18.4091 18.6945 18.3885C18.7738 18.3679 18.8578 18.3758 18.9319 18.4107C19.8897 18.8657 20.9108 19.1734 21.9606 19.3232C22.0659 19.3383 22.2044 19.355 22.3771 19.3717C22.4704 19.3812 22.5568 19.4251 22.6196 19.4948C22.6825 19.5644 22.7172 19.6549 22.7171 19.7488H22.7163Z" fill="white"/>
</svg>
