<svg width="32" height="32" viewBox="0 0 32 32" fill="none" xmlns="http://www.w3.org/2000/svg">
<rect width="32" height="32" rx="16" fill="#34AADF"/>
<path d="M8.90246 15.4332C8.90246 15.4332 15.4128 12.6912 17.6706 11.7256C18.5362 11.3394 21.4715 10.1036 21.4715 10.1036C21.4715 10.1036 22.8262 9.56289 22.7133 10.876C22.6757 11.4167 22.3746 13.3091 22.0736 15.3559C21.622 18.2525 21.1328 21.4194 21.1328 21.4194C21.1328 21.4194 21.0575 22.3077 20.4178 22.4621C19.7781 22.6166 18.7243 21.9215 18.5362 21.767C18.3856 21.6511 15.7138 19.9132 14.7354 19.0635C14.4719 18.8318 14.1709 18.3684 14.773 17.8277C16.1278 16.5532 17.7459 14.9698 18.7243 13.9656C19.1759 13.5022 19.6275 12.4208 17.7459 13.7339C15.0741 15.6263 12.4398 17.4029 12.4398 17.4029C12.4398 17.4029 11.8377 17.789 10.7088 17.4414C9.57979 17.0939 8.26268 16.6304 8.26268 16.6304C8.26268 16.6304 7.35957 16.0511 8.90246 15.4332Z" fill="white"/>
</svg>
